<?xml version="1.0" encoding="utf-8"?>
<!-- Generator: Adobe Illustrator 20.0.0, SVG Export Plug-In . SVG Version: 6.00 Build 0)  -->
<svg version="1.1" id="Layer_1" xmlns="http://www.w3.org/2000/svg" xmlns:xlink="http://www.w3.org/1999/xlink" x="0px" y="0px"
	 viewBox="0 0 182 158.9" style="enable-background:new 0 0 182 158.9;" xml:space="preserve">
<style type="text/css">
	.st0{fill:#231F20;}
	.st1{fill:none;}
	.st2{font-family:'Titillium-Bold';}
	.st3{font-size:23px;}
	.st4{font-family:'Titillium-Semibold';}
	.st5{font-family:'Titillium-Light';}
</style>
<g>
	<path class="st0" d="M133,48.9l-3.8,8.4l-18.1-30.7L101,43.9L76.1,0L2,127.6h176.9L133,48.9z M68.5,118.5
		c-14,0-25.4-11.4-25.4-25.4c0-14,11.4-25.4,25.4-25.4c14,0,25.4,11.4,25.4,25.4C93.9,107.1,82.5,118.5,68.5,118.5z M127.5,78.4h-24
		v-12h24V78.4z"/>
	<path class="st0" d="M68.5,79.7c-7.4,0-13.4,6-13.4,13.4c0,7.4,6,13.4,13.4,13.4s13.4-6,13.4-13.4C81.9,85.7,75.9,79.7,68.5,79.7z"
		/>
</g>
<rect x="0" y="132.3" class="st1" width="182" height="26.1"/>
<text transform="matrix(1 0 0 1 0 151.7692)"><tspan x="0" y="0" class="st0 st2 st3">SUNPHUN</tspan><tspan x="107.6" y="0" class="st0 st4 st3"> </tspan><tspan x="113.3" y="0" class="st0 st5 st3">MEDIA</tspan></text>
</svg>
