<?xml version="1.0" encoding="utf-8"?>
<!-- Generator: Adobe Illustrator 19.2.1, SVG Export Plug-In . SVG Version: 6.00 Build 0)  -->
<svg version="1.1" id="Layer_1" xmlns="http://www.w3.org/2000/svg" xmlns:xlink="http://www.w3.org/1999/xlink" x="0px" y="0px"
	 viewBox="0 0 176.9 127.6" style="enable-background:new 0 0 176.9 127.6;" xml:space="preserve">
<style type="text/css">
	.st0{fill:#FFFFFF;}
</style>
<g>
	<path class="st0" d="M131,48.9l-3.8,8.4l-18.1-30.7L98.9,43.9L74.1,0L0,127.6h176.9L131,48.9z M66.5,118.5
		c-14,0-25.4-11.4-25.4-25.4s11.4-25.4,25.4-25.4s25.4,11.4,25.4,25.4C91.9,107.1,80.5,118.5,66.5,118.5z M125.5,78.4h-24v-12h24
		V78.4z"/>
	<path class="st0" d="M66.5,79.8c-7.4,0-13.4,6-13.4,13.4s6,13.4,13.4,13.4s13.4-6,13.4-13.4S73.9,79.8,66.5,79.8z"/>
</g>
</svg>
